<?xml version="1.0" encoding="UTF-8"?>
<svg id="_レイヤー_1" data-name=" レイヤー 1" xmlns="http://www.w3.org/2000/svg" viewBox="0 0 494 288.81">
  <path d="M54.17,153.32c25.8,18.3,59.94,11.12,73.13-15.54,9.54-19.28,7.38-47.64-12.84-58.35,3.61,10.77,2.24,21.15-5.52,28.15-5.65,5.09-13.13,6.88-20.6,4.93-13.56-3.55-21.2-17.58-17-30.93,5.95-18.91,27.05-23.96,44.15-16.41,11.18,4.94,19.7,14.26,24.6,25.35,5.21,11.8,5.98,24.13,3.97,36.73-2.58,16.18-10.54,30.11-23.78,40.1-13.76,10.38-30.46,16.39-48.21,15.88-17.28-.51-34.29-6.56-47.18-18C-3.38,140.13-6.66,95.29,10.44,62.31c10.42-20.1,27.45-34.78,47.63-44.47C92.43,1.35,136.47,4.39,167.16,26.81c20.67,15.1,34.09,35.99,38.49,61.2,5.29,30.28.95,60.7-12.62,88.21-6.77,13.72-14.09,25.86-23.76,37.75-18.92,23.23-41.73,41.48-68.09,55.9-13.08,7.16-26.44,12.83-40.27,18.77-1.2.52-4.62-.27-5.32-1.24s-1.02-3.98.09-4.6c25.45-14.09,40.47-22.98,61.05-43.95,36.39-37.09,56.57-85.48,51.44-137.86-1.68-17.05-7.06-32.28-16.29-46.34-16.85-25.69-47.64-38.22-77.52-28.94-33.08,10.28-52.26,43.48-48.08,77.5,2.5,20.34,11.29,38.32,27.92,50.12h-.01Z" fill="#e2e1d9"/>
  <path d="M306.88,253.81l-7.19-39.48-10.16-54.42c-.48-2.55-.88-3.43-.12-5.34,2.29-5.78,4.23-10.72,6.14-16.39,6.58-19.59,13.5-38.35,21.43-57.34,1.74,16.2,3.51,30.17,6.37,46.15l17.8,99.55c.28,1.58,3.77,5.15,4.68,4.09,9.56-11.13,24.24-58.2,30.07-74.9l27.73-79.29c4.88-13.96,11.27-26.56,18.69-39.23,15.3-26.14,40.24-46.74,71.66-32.63l-10.77,18.37c-2.11,3.59-3.97,7.49-6.14,11.8-20.63-6.16-35.5,7.06-46,23.47-8.44,13.18-14.63,27.03-20.03,41.81l-16.68,45.64-17.84,52.61-15.96,43.25c-.69,1.89-1.76,3.82-2.82,5.6-10.34,17.35-23.54,32.93-45.32,35.08l-4.49-22.59-1.08-5.78h.01Z" fill="#e2e1d9"/>
  <path d="M225.9,131.05c-8.68-7.8-7.22-23.1,2.98-28.88,14.88-8.8,32.71,6.34,26.19,22.47-4.34,11.55-20.12,15.37-29,6.58l-.18-.17h.01Z" fill="silver"/>
  <path d="M256.23,56.1c0,10-8.11,18.09-18.11,18.09-24.01-.95-24.01-35.24,0-36.19,10,0,18.11,8.1,18.11,18.09Z" fill="#d4af37"/>
  <path d="M178.2,282.99c9.24-27.6,8.04-33.61,4.49-61.22-.18-1.42.31-4.75,1.11-5.82,12.03-15.95,20.58-32.58,28.03-50.65,4.42,15.25,6.51,29.1,6.62,43.92.07,10.07-3.03,19.66-6.14,28.94l-3.55,10.62c31.68-27.38,48.99-85.17,62.92-123.81l9.02-25.02c5.42-15.06,11.57-29.29,19.44-43.19,14.04-24.79,37.73-44.84,67.87-41.25l-3.04,10.29c-19.93-.49-37.58,13.14-47.87,29.17-17.21,26.8-25.63,57.38-36.11,86.83l-9.38,26.3c-13.35,37.45-33.4,78.96-65.98,103.05-8.09,5.98-17.71,9.19-27.42,11.81h.01Z" fill="#e2e1d9"/>
</svg>