<svg xmlns="http://www.w3.org/2000/svg" viewBox="0 0 640 640">
  <rect width="640" height="640" fill="#e5e7eb"/>
  <rect x="150" y="60" width="340" height="520" rx="18" fill="#ffffff"/>
  <rect x="176" y="94" width="288" height="32" rx="6" fill="#111827"/>
  <g fill="#374151">
    <rect x="176" y="152" width="210" height="8" rx="4"/>
    <rect x="176" y="178" width="240" height="8" rx="4"/>
    <rect x="176" y="204" width="180" height="8" rx="4"/>
    <rect x="176" y="250" width="250" height="8" rx="4"/>
    <rect x="176" y="276" width="220" height="8" rx="4"/>
    <rect x="176" y="302" width="200" height="8" rx="4"/>
    <rect x="176" y="348" width="240" height="8" rx="4"/>
    <rect x="176" y="374" width="260" height="8" rx="4"/>
  </g>
  <rect x="176" y="428" width="288" height="54" rx="8" fill="#fef3c7"/>
  <text x="320" y="468" text-anchor="middle" font-size="26" fill="#92400e" font-family="sans-serif">合計 2,640 円</text>
  <text x="320" y="544" text-anchor="middle" font-size="24" fill="#6b7280" font-family="sans-serif">RECEIPT (DEMO)</text>
</svg>
