<?xml version="1.0" encoding="UTF-8"?>
<svg id="_レイヤー_1" data-name="レイヤー 1" xmlns="http://www.w3.org/2000/svg" viewBox="0 0 1049.55 278.98">
  <g>
    <path d="M43.95,124.4c20.93,14.85,48.63,9.02,59.33-12.61,7.74-15.64,5.99-38.65-10.42-47.34,2.93,8.74,1.82,17.16-4.48,22.84-4.58,4.13-10.65,5.58-16.71,4-11-2.88-17.2-14.26-13.79-25.09,4.83-15.34,21.95-19.44,35.82-13.31,9.07,4.01,15.98,11.57,19.96,20.57,4.23,9.57,4.85,19.58,3.22,29.8-2.09,13.13-8.55,24.43-19.29,32.53-11.16,8.42-24.71,13.3-39.11,12.88-14.02-.41-27.82-5.32-38.28-14.6C-2.74,113.7-5.4,77.32,8.47,50.56c8.45-16.31,22.27-28.22,38.64-36.08,27.88-13.38,63.61-10.91,88.51,7.28,16.77,12.25,27.66,29.2,31.23,49.65,4.29,24.57.77,49.25-10.24,71.57-5.49,11.13-11.43,20.98-19.28,30.63-15.35,18.85-33.86,33.65-55.24,45.35-10.61,5.81-21.45,10.41-32.67,15.23-.97.42-3.75-.22-4.32-1.01s-.83-3.23.07-3.73c20.65-11.43,32.83-18.64,49.53-35.66,29.52-30.09,45.9-69.35,41.73-111.85-1.36-13.83-5.73-26.19-13.22-37.6-13.67-20.84-38.65-31.01-62.89-23.48-26.84,8.34-42.4,35.28-39.01,62.88,2.03,16.5,9.16,31.09,22.65,40.66Z" fill="#e2e1d9"/>
    <path d="M248.98,205.93l-5.83-32.03-8.24-44.15c-.39-2.07-.71-2.78-.1-4.33,1.86-4.69,3.43-8.7,4.98-13.3,5.34-15.89,10.95-31.11,17.39-46.52,1.41,13.14,2.85,24.48,5.17,37.44l14.44,80.77c.23,1.28,3.06,4.18,3.8,3.32,7.76-9.03,19.67-47.22,24.4-60.77l22.5-64.33c3.96-11.33,9.14-21.55,15.16-31.83,12.41-21.21,32.65-37.92,58.14-26.47l-8.74,14.9c-1.71,2.91-3.22,6.08-4.98,9.57-16.74-5-28.8,5.73-37.32,19.04-6.85,10.69-11.87,21.93-16.25,33.92l-13.53,37.03-14.47,42.68-12.95,35.09c-.56,1.53-1.43,3.1-2.29,4.54-8.39,14.08-19.1,26.72-36.77,28.46l-3.64-18.33-.88-4.69Z" fill="#e2e1d9"/>
    <path d="M183.28,106.33c-7.04-6.33-5.86-18.74,2.42-23.43,12.07-7.14,26.54,5.14,21.25,18.23-3.52,9.37-16.32,12.47-23.53,5.34l-.15-.14Z" fill="silver"/>
    <path d="M207.88,45.52c0,8.11-6.58,14.68-14.69,14.68-19.48-.77-19.48-28.59,0-29.36,8.11,0,14.69,6.57,14.69,14.68Z" fill="#d4af37"/>
    <path d="M144.58,229.6c7.5-22.39,6.52-27.27,3.64-49.67-.15-1.15.25-3.85.9-4.72,9.76-12.94,16.7-26.43,22.74-41.09,3.59,12.37,5.28,23.61,5.37,35.63.06,8.17-2.46,15.95-4.98,23.48l-2.88,8.62c25.7-22.21,39.75-69.1,51.05-100.45l7.32-20.3c4.4-12.22,9.39-23.76,15.77-35.04,11.39-20.11,30.61-36.38,55.06-33.47l-2.47,8.35c-16.17-.4-30.49,10.66-38.84,23.67-13.96,21.74-20.79,46.55-29.3,70.45l-7.61,21.34c-10.83,30.38-27.1,64.06-53.53,83.61-6.56,4.85-14.37,7.46-22.25,9.58Z" fill="#e2e1d9"/>
  </g>
  <g>
    <path d="M405.01,200.3l-6.79,20.3h-3.05l-5.54-16.21-5.54,16.21h-3.1l-6.79-20.3h2.99l5.48,16.51,5.71-16.51h2.67l5.6,16.59,5.6-16.59h2.76Z" fill="#a0a5a9"/>
    <path d="M408.54,200.3h2.9v20.3h-2.9v-20.3Z" fill="#a0a5a9"/>
    <path d="M434.99,200.3v20.3h-2.38l-12.18-15.14v15.14h-2.9v-20.3h2.38l12.18,15.14v-15.14h2.9Z" fill="#a0a5a9"/>
    <path d="M441.08,200.3h8.56c6.53,0,10.96,4.12,10.96,10.15s-4.44,10.15-10.96,10.15h-8.56v-20.3ZM449.46,218.08c5.02,0,8.24-3.07,8.24-7.63s-3.22-7.63-8.24-7.63h-5.48v15.26h5.48Z" fill="#a0a5a9"/>
    <path d="M471.18,210.45c0-5.95,4.58-10.38,10.82-10.38s10.76,4.41,10.76,10.38-4.58,10.38-10.76,10.38-10.82-4.44-10.82-10.38ZM489.86,210.45c0-4.5-3.37-7.8-7.86-7.8s-7.92,3.31-7.92,7.8,3.37,7.8,7.92,7.8,7.86-3.31,7.86-7.8Z" fill="#a0a5a9"/>
    <path d="M510.77,220.6l-4.38-6.24c-.41.03-.84.06-1.28.06h-5.02v6.18h-2.9v-20.3h7.92c5.28,0,8.47,2.67,8.47,7.08,0,3.13-1.62,5.39-4.47,6.41l4.82,6.82h-3.16ZM510.68,207.37c0-2.9-1.94-4.55-5.66-4.55h-4.93v9.14h4.93c3.71,0,5.66-1.68,5.66-4.58Z" fill="#a0a5a9"/>
    <path d="M516.62,210.45c0-6,4.58-10.38,10.76-10.38,3.13,0,5.86,1.07,7.72,3.16l-1.89,1.83c-1.57-1.65-3.48-2.41-5.71-2.41-4.58,0-7.98,3.31-7.98,7.8s3.39,7.8,7.98,7.8c2.23,0,4.15-.78,5.71-2.44l1.89,1.83c-1.86,2.09-4.58,3.19-7.75,3.19-6.15,0-10.73-4.38-10.73-10.38Z" fill="#a0a5a9"/>
    <path d="M556.71,200.3v20.3h-2.9v-9.05h-11.66v9.05h-2.9v-20.3h2.9v8.73h11.66v-8.73h2.9Z" fill="#a0a5a9"/>
    <path d="M577.53,218.08v2.52h-14.74v-20.3h14.33v2.52h-11.43v6.24h10.18v2.47h-10.18v6.55h11.83Z" fill="#a0a5a9"/>
    <path d="M580.36,218.28l1.07-2.26c1.51,1.36,4.09,2.35,6.7,2.35,3.51,0,5.02-1.36,5.02-3.13,0-4.96-12.3-1.83-12.3-9.37,0-3.13,2.44-5.8,7.77-5.8,2.38,0,4.84.64,6.53,1.8l-.96,2.32c-1.77-1.13-3.77-1.65-5.57-1.65-3.45,0-4.93,1.45-4.93,3.22,0,4.96,12.3,1.86,12.3,9.31,0,3.1-2.5,5.77-7.86,5.77-3.1,0-6.15-1.04-7.77-2.55Z" fill="#a0a5a9"/>
    <path d="M603.97,202.82h-6.96v-2.52h16.79v2.52h-6.96v17.78h-2.87v-17.78Z" fill="#a0a5a9"/>
    <path d="M630.54,220.6l-4.38-6.24c-.41.03-.84.06-1.28.06h-5.02v6.18h-2.9v-20.3h7.92c5.28,0,8.47,2.67,8.47,7.08,0,3.13-1.62,5.39-4.47,6.41l4.82,6.82h-3.16ZM630.45,207.37c0-2.9-1.94-4.55-5.66-4.55h-4.93v9.14h4.93c3.71,0,5.66-1.68,5.66-4.58Z" fill="#a0a5a9"/>
    <path d="M650.98,215.53h-10.79l-2.23,5.08h-2.99l9.2-20.3h2.87l9.22,20.3h-3.04l-2.23-5.08ZM649.97,213.2l-4.38-9.95-4.38,9.95h8.76Z" fill="#a0a5a9"/>
    <path d="M685.9,220.6l-.03-14.79-7.34,12.33h-1.33l-7.34-12.24v14.71h-2.78v-20.3h2.38l8.47,14.27,8.35-14.27h2.38l.03,20.3h-2.79Z" fill="#a0a5a9"/>
    <path d="M707.7,215.53h-10.79l-2.23,5.08h-2.99l9.2-20.3h2.87l9.22,20.3h-3.04l-2.23-5.08ZM706.69,213.2l-4.38-9.95-4.38,9.95h8.76Z" fill="#a0a5a9"/>
    <path d="M733.46,200.3v20.3h-2.38l-12.18-15.14v15.14h-2.9v-20.3h2.38l12.18,15.14v-15.14h2.9Z" fill="#a0a5a9"/>
    <path d="M752.48,215.53h-10.79l-2.23,5.08h-2.99l9.2-20.3h2.87l9.22,20.3h-3.04l-2.23-5.08ZM751.47,213.2l-4.38-9.95-4.38,9.95h8.76Z" fill="#a0a5a9"/>
    <path d="M774.55,210.33h2.78v7.92c-2.03,1.71-4.84,2.58-7.69,2.58-6.24,0-10.82-4.38-10.82-10.38s4.58-10.38,10.88-10.38c3.22,0,5.95,1.07,7.8,3.13l-1.8,1.8c-1.68-1.62-3.6-2.35-5.89-2.35-4.7,0-8.09,3.28-8.09,7.8s3.39,7.8,8.06,7.8c1.71,0,3.31-.38,4.76-1.3v-6.61Z" fill="#a0a5a9"/>
    <path d="M797.6,218.08v2.52h-14.74v-20.3h14.33v2.52h-11.43v6.24h10.18v2.47h-10.18v6.55h11.83Z" fill="#a0a5a9"/>
    <path d="M821.12,220.6l-.03-14.79-7.34,12.33h-1.33l-7.34-12.24v14.71h-2.78v-20.3h2.38l8.47,14.27,8.35-14.27h2.38l.03,20.3h-2.79Z" fill="#a0a5a9"/>
    <path d="M844.73,218.08v2.52h-14.74v-20.3h14.33v2.52h-11.43v6.24h10.18v2.47h-10.18v6.55h11.83Z" fill="#a0a5a9"/>
    <path d="M866.88,200.3v20.3h-2.38l-12.18-15.14v15.14h-2.9v-20.3h2.38l12.18,15.14v-15.14h2.9Z" fill="#a0a5a9"/>
    <path d="M877,202.82h-6.96v-2.52h16.79v2.52h-6.96v17.78h-2.87v-17.78Z" fill="#a0a5a9"/>
    <path d="M895.94,218.28l1.07-2.26c1.51,1.36,4.09,2.35,6.7,2.35,3.51,0,5.02-1.36,5.02-3.13,0-4.96-12.3-1.83-12.3-9.37,0-3.13,2.44-5.8,7.77-5.8,2.38,0,4.84.64,6.53,1.8l-.96,2.32c-1.77-1.13-3.77-1.65-5.57-1.65-3.45,0-4.93,1.45-4.93,3.22,0,4.96,12.3,1.86,12.3,9.31,0,3.1-2.5,5.77-7.86,5.77-3.1,0-6.15-1.04-7.77-2.55Z" fill="#a0a5a9"/>
    <path d="M923.14,213.58v7.02h-2.87v-7.08l-8.06-13.23h3.1l6.5,10.7,6.53-10.7h2.87l-8.06,13.29Z" fill="#a0a5a9"/>
    <path d="M931.84,218.28l1.07-2.26c1.51,1.36,4.09,2.35,6.7,2.35,3.51,0,5.02-1.36,5.02-3.13,0-4.96-12.3-1.83-12.3-9.37,0-3.13,2.44-5.8,7.77-5.8,2.38,0,4.84.64,6.53,1.8l-.96,2.32c-1.77-1.13-3.77-1.65-5.57-1.65-3.45,0-4.93,1.45-4.93,3.22,0,4.96,12.3,1.86,12.3,9.31,0,3.1-2.5,5.77-7.86,5.77-3.1,0-6.15-1.04-7.77-2.55Z" fill="#a0a5a9"/>
    <path d="M955.45,202.82h-6.96v-2.52h16.79v2.52h-6.96v17.78h-2.87v-17.78Z" fill="#a0a5a9"/>
    <path d="M983.17,218.08v2.52h-14.74v-20.3h14.33v2.52h-11.43v6.24h10.18v2.47h-10.18v6.55h11.83Z" fill="#a0a5a9"/>
    <path d="M1006.69,220.6l-.03-14.79-7.34,12.33h-1.33l-7.34-12.24v14.71h-2.78v-20.3h2.38l8.47,14.27,8.35-14.27h2.38l.03,20.3h-2.79Z" fill="#a0a5a9"/>
  </g>
  <g>
    <rect x="363.25" y="77.05" width="686.3" height="125.62" fill="none"/>
    <path d="M495.05,94.76l-27.38,82.6h-16.28l-20.41-61.12-20.77,61.12h-16.4l-27.38-82.6h15.93l20.53,62.77,21.36-62.77h14.16l20.89,63.13,21.12-63.13h14.63Z" fill="#e5e3d7"/>
    <path d="M507.56,94.76h15.34v82.6h-15.34v-82.6Z" fill="#e5e3d7"/>
    <path d="M618.6,94.76v82.6h-12.63l-45.55-55.93v55.93h-15.22v-82.6h12.62l45.55,55.93v-55.93h15.22Z" fill="#e5e3d7"/>
    <path d="M640.78,94.76h36.11c26.79,0,45.08,16.52,45.08,41.3s-18.29,41.3-45.08,41.3h-36.11v-82.6ZM676.18,164.37c18.41,0,30.33-11.21,30.33-28.32s-11.92-28.32-30.33-28.32h-20.06v56.64h20.06Z" fill="#e5e3d7"/>
    <path d="M732.35,136.05c0-24.42,18.88-42.48,44.49-42.48s44.48,17.94,44.48,42.48-18.88,42.48-44.48,42.48-44.49-18.05-44.49-42.48ZM805.86,136.05c0-16.87-12.39-29.03-29.03-29.03s-29.03,12.15-29.03,29.03,12.39,29.03,29.03,29.03,29.03-12.15,29.03-29.03Z" fill="#e5e3d7"/>
    <path d="M913.48,177.35l-.12-54.75-27.14,45.31h-6.84l-27.14-44.6v54.04h-14.63v-82.6h12.62l32.8,54.75,32.21-54.75h12.62l.12,82.6h-14.51Z" fill="#e5e3d7"/>
    <path d="M943.33,168.62l5.31-11.92c6.61,5.31,17.11,9.09,27.26,9.09,12.86,0,18.29-4.6,18.29-10.74,0-17.82-49.09-6.14-49.09-36.81,0-13.33,10.62-24.66,33.28-24.66,9.91,0,20.29,2.6,27.49,7.32l-4.84,11.92c-7.43-4.37-15.58-6.49-22.77-6.49-12.74,0-17.94,4.96-17.94,11.21,0,17.58,48.97,6.14,48.97,36.46,0,13.22-10.74,24.54-33.39,24.54-12.86,0-25.72-4.01-32.57-9.91Z" fill="#e5e3d7"/>
  </g>
</svg>